<?xml version="1.0" encoding="utf-8"?>
<!-- Generator: Adobe Illustrator 23.0.3, SVG Export Plug-In . SVG Version: 6.00 Build 0)  -->
<svg version="1.1" xmlns="http://www.w3.org/2000/svg" xmlns:xlink="http://www.w3.org/1999/xlink" x="0px" y="0px"
	 viewBox="0 0 256 256" style="enable-background:new 0 0 256 256;" xml:space="preserve">
<style type="text/css">
	.st0{fill:#878787;}
	.st1{fill:#F2E1D6;}
	.st2{fill:#FFFFFF;}
	.st3{fill:#F0C020;}
	.st4{fill:#F9E5AF;}
	.st5{fill:#72C1E8;}
	.st6{fill:#C5E5FF;}
	.st7{fill:#13BF6D;}
	.st8{fill:#76FFBA;}
	.st9{fill:#EFEFEF;}
	.st10{fill:#FC5D3D;}
	.st11{fill:#FFCBC2;}
	.st12{fill:#FFB69F;}
	.st13{fill:#AFAFAF;}
	.st14{fill:#7C7B7A;}
	.st15{fill:#D6C0B4;}
	.st16{fill:#7A7380;}
	.st17{fill:#F0AB20;}
	.st18{fill:#FBE0E2;}
	.st19{fill:#4C4945;}
	.st20{fill:#68B0D4;}
	.st21{fill:#B35034;}
	.st22{fill:#EDAF85;}
	.st23{fill:#139C6D;}
</style>
<g id="Layer_2">
</g>
<g id="Layer_1">
	<g>
		<g>
			<g>
				<g>
					<g>
						<g>
							<g>
								<path class="st13" d="M231.56,39.34v121.4c0,3.64-1.99,7-5.2,8.74l-7.41,4.05c-3.88,2.12-7.1,4.94-9.51,8.22l-21.71-21.7
									c1.95-1.89,4.07-3.62,6.34-5.18c2.75-1.89,4.45-4.97,4.45-8.3V61.08c0-3.34-1.7-6.41-4.45-8.3
									c-4.01-2.75-7.55-6.05-10.51-9.77c-1.91-2.4-4.78-3.83-7.85-3.83H72.91c-3.07,0-5.94,1.43-7.85,3.83
									c-2.96,3.72-6.5,7.02-10.51,9.77c-2.75,1.89-4.45,4.96-4.45,8.3v85.49c0,3.33,1.7,6.41,4.45,8.3
									c10.67,7.33,18.07,18.5,19.8,31.26c0.44,3.26,2.35,6.12,5.26,7.65l40.06,21.05c2.91,1.53,6.37,1.53,9.28,0l40.06-21.05
									c2.91-1.53,4.82-4.39,5.26-7.65c0.43-3.32,1.42-7.18,2.98-10.9l27.13,27.13v1.71c-0.06,3.64-2.12,6.97-5.35,8.66
									l-70.08,36.83c-2.91,1.53-6.37,1.53-9.28,0l-70.08-36.83c-3.23-1.69-5.27-5.02-5.33-8.66l-0.11-7.63
									c-0.15-9.48-5.56-18.05-14.48-22.91l-7.41-4.05c-3.21-1.74-5.2-5.1-5.2-8.74V39.34c0-3.64,1.99-7,5.2-8.75l11.72-6.39
									c1.48-0.8,2.72-1.96,3.62-3.37l7.01-10.95c1.84-2.85,5-4.58,8.39-4.58h142.62c3.39,0,6.55,1.73,8.39,4.58l7.01,10.95
									c0.9,1.41,2.14,2.57,3.62,3.37l11.72,6.39C229.57,32.34,231.56,35.7,231.56,39.34z"/>
								<g>
									<circle class="st9" cx="99.491" cy="22.119" r="5.676"/>
								</g>
								<g>
									<circle class="st9" cx="149.128" cy="22.119" r="5.676"/>
								</g>
								<g>
									<circle class="st9" cx="124.31" cy="233.073" r="5.676"/>
								</g>
								<g>
									<circle class="st9" cx="32.782" cy="82.693" r="5.676"/>
								</g>
								<g>
									<circle class="st9" cx="215.837" cy="82.693" r="5.676"/>
								</g>
								<g>
									<circle class="st9" cx="32.782" cy="135.174" r="5.676"/>
								</g>
								<g>
									<circle class="st9" cx="215.837" cy="135.174" r="5.676"/>
								</g>
								<g>
									<circle class="st9" cx="44.134" cy="36.419" r="5.676"/>
								</g>
								<g>
									<circle class="st9" cx="204.486" cy="36.419" r="5.676"/>
								</g>
								<g>
									<circle class="st9" cx="53.771" cy="177.615" r="5.676"/>
								</g>
								<g>
									<circle class="st9" cx="81.453" cy="212.444" r="5.676"/>
								</g>
								<g>
									<circle class="st9" cx="167.166" cy="212.444" r="5.676"/>
								</g>
								<path class="st3" d="M198.52,61.08v85.49c0,3.33-1.7,6.41-4.45,8.3c-2.27,1.56-4.39,3.29-6.34,5.18l-8.52-8.53
									c-1.18-1.18-3.11-1.18-4.29,0l-8.54,8.54c-1.19,1.19-1.19,3.11,0,4.3l10.87,10.87c-1.56,3.72-2.55,7.58-2.98,10.9
									c-0.44,3.26-2.35,6.12-5.26,7.65l-40.06,21.05c-2.91,1.53-6.37,1.53-9.28,0l-40.06-21.05c-2.91-1.53-4.82-4.39-5.26-7.65
									c-1.73-12.76-9.13-23.93-19.8-31.26c-2.75-1.89-4.45-4.97-4.45-8.3V61.08c0-3.34,1.7-6.41,4.45-8.3
									c4.01-2.75,7.55-6.05,10.51-9.77c1.91-2.4,4.78-3.83,7.85-3.83h102.8c3.07,0,5.94,1.43,7.85,3.83
									c2.96,3.72,6.5,7.02,10.51,9.77C196.82,54.67,198.52,57.74,198.52,61.08z"/>
							</g>
						</g>
					</g>
					<g>
						<path class="st4" d="M123.146,205.894l-38.17-20.057c-1.222-0.642-1.692-2.153-1.05-3.376s2.155-1.692,3.376-1.05
							l37.007,19.446l35.907-18.867c0.285-1.619,0.643-3.237,1.068-4.826c0.357-1.333,1.727-2.128,3.061-1.769
							c1.333,0.356,2.126,1.727,1.769,3.061c-0.487,1.823-0.878,3.688-1.162,5.544c-0.12,0.785-0.605,1.467-1.308,1.836
							l-38.172,20.058C124.744,206.277,123.875,206.277,123.146,205.894z"/>
					</g>
					<g>
						<path class="st4" d="M186.499,147.984c-1.381,0-2.5-1.119-2.5-2.5V63.432c-4.19-3.103-7.958-6.68-11.215-10.648
							c-0.876-1.067-0.721-2.643,0.347-3.519c1.066-0.875,2.641-0.722,3.519,0.347c3.246,3.954,7.046,7.489,11.297,10.506
							c0.661,0.469,1.053,1.229,1.053,2.039v83.328C188.999,146.865,187.879,147.984,186.499,147.984z"/>
					</g>
				</g>
			</g>
			<g>
				<path class="st5" d="M236.13,208.45l-26.69-26.7l-21.71-21.7l-8.52-8.53c-1.18-1.18-3.11-1.18-4.29,0l-8.54,8.54
					c-1.19,1.19-1.19,3.11,0,4.3l10.87,10.87l46.27,46.27c3.59,3.59,9.48,3.56,13.02-0.19C239.95,217.7,239.65,211.96,236.13,208.45
					z"/>
				<g>
					<circle class="st5" cx="121.39" cy="106.566" r="53.77"/>
				</g>
			</g>
			<g>
				<g>
					<path class="st2" d="M162.449,106.576c0,12.793-5.847,24.213-15.03,31.749c-7.093,5.805-16.149,9.31-26.029,9.31
						s-18.935-3.505-26.029-9.31c-9.182-7.536-15.03-18.957-15.03-31.749c0-22.693,18.387-41.08,41.059-41.08
						S162.449,83.883,162.449,106.576z"/>
				</g>
				<g>
					<path class="st10" d="M147.419,135.856v2.47c-7.093,5.805-16.149,9.31-26.029,9.31s-18.935-3.505-26.029-9.31v-2.47
						c0-11.653,9.436-21.11,21.11-21.11h9.838C137.983,114.746,147.419,124.203,147.419,135.856z"/>
				</g>
				<g>
					<g>
						<path class="st11" d="M136.744,135.002c-0.398-5.434-4.982-9.69-10.435-9.69c-1.381,0-2.5-1.119-2.5-2.5s1.119-2.5,2.5-2.5
							c8.059,0,14.833,6.292,15.421,14.325c0.101,1.377-0.934,2.575-2.311,2.676C138.068,137.419,136.846,136.396,136.744,135.002z"
							/>
					</g>
				</g>
				<g>
					<path class="st14" d="M135.085,78.888l-5.024,2.622c-1.291,0.674-2.725,1.025-4.181,1.025h-10.067
						c-3.735,0-6.067,3.146-6.067,7.031v3.816h23.29v0C136.477,89.716,137.647,84.167,135.085,78.888z"/>
				</g>
				<g>
					<path class="st12" d="M121.403,114.746L121.403,114.746c-6.431,0-11.645-5.214-11.645-11.645v-9.718h23.29v9.718
						C133.048,109.532,127.834,114.746,121.403,114.746z"/>
				</g>
			</g>
		</g>
		<path d="M130.111,251.77l70.08-36.83c2.925-1.535,5.063-4.137,6.054-7.186l15.506,15.506c4.668,4.668,12.186,4.447,16.61-0.24
			c4.347-4.588,3.997-11.903-0.46-16.34l-25.105-25.109c2.033-2.322,4.495-4.291,7.355-5.851l7.41-4.05
			c4.01-2.17,6.5-6.36,6.5-10.93V66.53c0-1.38-1.12-2.5-2.5-2.5c-1.38,0-2.5,1.12-2.5,2.5v94.21c0,2.73-1.49,5.24-3.89,6.54
			l-7.42,4.05c-3.282,1.794-6.122,4.047-8.493,6.702l-17.901-17.904c1.309-1.132,2.687-2.206,4.134-3.198
			c3.46-2.38,5.53-6.25,5.53-10.36V61.08c0-4.11-2.07-7.99-5.53-10.36c-3.8-2.61-7.16-5.73-9.97-9.27
			c-2.41-3.03-5.99-4.77-9.81-4.77H72.901c-3.81,0-7.39,1.74-9.8,4.77c-2.82,3.55-6.17,6.67-9.96,9.26
			c-3.47,2.38-5.54,6.26-5.54,10.37v85.49c0,4.11,2.07,7.98,5.53,10.36c6.09,4.18,11.06,9.7,14.37,15.96
			c0.643,1.227,2.165,1.681,3.38,1.04c1.227-0.645,1.678-2.157,1.04-3.37c-3.69-6.98-9.2-13.12-15.95-17.75
			c-2.11-1.46-3.37-3.79-3.37-6.24V61.08c0-2.46,1.26-4.79,3.37-6.24c4.2-2.88,7.91-6.34,11.05-10.28c1.46-1.83,3.6-2.88,5.89-2.88
			h102.8c2.28,0,4.43,1.05,5.89,2.88c3.14,3.94,6.86,7.4,11.06,10.28c2.1,1.45,3.36,3.78,3.36,6.24v85.49
			c0,2.45-1.26,4.78-3.37,6.24c-1.693,1.159-3.31,2.428-4.84,3.771l-6.83-6.832c-2.178-2.178-5.709-2.143-7.83,0l-2.5,2.5
			l-7.723-7.723c9.292-10.159,14.733-23.518,14.733-37.957c0-16.5-7.2-32.11-19.76-42.82c-1.01-0.87-2.67-0.73-3.53,0.28
			c-0.874,1.018-0.796,2.613,0.28,3.52c11.45,9.77,18.01,23.99,18.01,39.02c0,28.271-22.861,51.249-51.27,51.27
			c-28.394-0.021-51.27-22.998-51.27-51.27c0-28.232,22.826-51.27,51.27-51.27c5.76,0,11.42,0.95,16.82,2.82
			c1.28,0.44,2.74-0.27,3.18-1.54c0.451-1.291-0.219-2.719-1.54-3.18c-5.92-2.06-12.13-3.1-18.46-3.1
			c-31.191,0-56.27,25.295-56.27,56.27c0,30.998,25.111,56.26,56.27,56.26c14.571,0,27.917-5.524,38.002-14.767l7.723,7.723
			l-2.505,2.505c-2.15,2.149-2.173,5.658,0,7.83l9.725,9.725c-1.219,3.234-2.09,6.568-2.545,9.945c-0.34,2.53-1.78,4.63-3.94,5.77
			l-40.06,21.05c-2.15,1.13-4.82,1.13-6.96,0l-40.06-21.05c-1.08-0.57-1.98-1.37-2.67-2.4c-0.74-1.1-2.36-1.41-3.47-0.66
			c-1.147,0.77-1.452,2.318-0.67,3.47c1.14,1.68,2.69,3.08,4.49,4.02l40.06,21.05c3.61,1.906,7.994,1.904,11.6,0l40.06-21.05
			c3.57-1.88,6.03-5.44,6.58-9.53c0.303-2.258,0.823-4.494,1.511-6.689l3.239,3.239c0.94,0.94,2.58,0.94,3.53,0
			c0.989-1.01,0.958-2.582,0-3.54l-16.88-16.88c-0.219-0.219-0.214-0.556,0-0.77l8.54-8.54c0.209-0.209,0.555-0.195,0.75,0
			l56.92,56.93c2.539,2.539,2.865,6.719,0.36,9.38c-2.546,2.709-6.828,2.742-9.43,0.14l-26.12-26.12c-0.94-0.94-2.59-0.94-3.53,0
			c-0.98,0.98-0.98,2.56,0,3.54l6.228,6.228l-0.008,0.662c-0.04,2.73-1.57,5.21-3.99,6.47l-70.08,36.83c-2.15,1.13-4.81,1.13-6.96,0
			l-70.08-36.83c-2.42-1.26-3.95-3.75-3.99-6.48l-0.11-7.63c-0.168-10.716-6.445-19.997-15.78-25.07l-7.41-4.05
			c-2.41-1.3-3.9-3.81-3.9-6.54V39.34c0-2.74,1.49-5.25,3.9-6.56l11.72-6.39c1.83-0.99,3.4-2.45,4.53-4.22l7.01-10.95
			c1.38-2.14,3.73-3.42,6.28-3.42h142.63c2.54,0,4.89,1.28,6.28,3.43l7,10.94c1.13,1.77,2.7,3.23,4.54,4.23l11.71,6.38
			c2.41,1.31,3.9,3.82,3.9,6.56v7.19c0,1.38,1.12,2.5,2.5,2.5c1.38,0,2.5-1.12,2.5-2.5v-7.19c0-4.57-2.49-8.76-6.5-10.95L215.841,22
			c-1.12-0.6-2.03-1.45-2.71-2.52l-7.01-10.95c-2.32-3.59-6.25-5.73-10.5-5.73H53.001c-4.26,0-8.18,2.14-10.49,5.72l-7.01,10.96
			c-0.68,1.05-1.62,1.93-2.71,2.52l-11.73,6.39c-4.01,2.19-6.5,6.38-6.5,10.95v121.4c0,4.57,2.49,8.76,6.51,10.93l7.4,4.05
			c8.11,4.43,13.04,12.19,13.18,20.76l0.11,7.62c0.08,4.57,2.63,8.73,6.67,10.84l70.08,36.83
			C122.052,253.641,126.414,253.711,130.111,251.77z"/>
		<circle cx="231.56" cy="56.53" r="2.5"/>
		<path d="M91.315,22.119c0,4.508,3.667,8.176,8.176,8.176c4.508,0,8.175-3.667,8.175-8.176s-3.667-8.176-8.175-8.176
			C94.983,13.943,91.315,17.611,91.315,22.119z M102.667,22.119c0,1.751-1.424,3.176-3.175,3.176s-3.176-1.425-3.176-3.176
			s1.425-3.176,3.176-3.176S102.667,20.368,102.667,22.119z"/>
		<path d="M140.953,22.119c0,4.508,3.667,8.176,8.176,8.176s8.176-3.667,8.176-8.176s-3.667-8.176-8.176-8.176
			S140.953,17.611,140.953,22.119z M152.304,22.119c0,1.751-1.425,3.176-3.176,3.176s-3.176-1.425-3.176-3.176
			s1.425-3.176,3.176-3.176S152.304,20.368,152.304,22.119z"/>
		<path d="M132.485,233.073c0-4.508-3.667-8.175-8.176-8.175s-8.176,3.667-8.176,8.175c0,4.508,3.667,8.176,8.176,8.176
			S132.485,237.581,132.485,233.073z M121.134,233.073c0-1.751,1.425-3.175,3.176-3.175s3.176,1.424,3.176,3.175
			s-1.425,3.176-3.176,3.176S121.134,234.824,121.134,233.073z"/>
		<path d="M32.782,74.517c-4.508,0-8.176,3.667-8.176,8.175c0,4.508,3.667,8.176,8.176,8.176s8.176-3.667,8.176-8.176
			C40.958,78.185,37.291,74.517,32.782,74.517z M32.782,85.868c-1.751,0-3.176-1.425-3.176-3.176s1.425-3.175,3.176-3.175
			s3.176,1.424,3.176,3.175S34.533,85.868,32.782,85.868z"/>
		<path d="M215.837,74.517c-4.508,0-8.175,3.667-8.175,8.175c0,4.508,3.667,8.176,8.175,8.176c4.508,0,8.176-3.667,8.176-8.176
			C224.013,78.185,220.345,74.517,215.837,74.517z M215.837,85.868c-1.751,0-3.175-1.425-3.175-3.176s1.424-3.175,3.175-3.175
			s3.176,1.424,3.176,3.175S217.588,85.868,215.837,85.868z"/>
		<path d="M32.782,126.998c-4.508,0-8.176,3.667-8.176,8.176s3.667,8.176,8.176,8.176s8.176-3.667,8.176-8.176
			S37.291,126.998,32.782,126.998z M32.782,138.35c-1.751,0-3.176-1.425-3.176-3.176s1.425-3.176,3.176-3.176
			s3.176,1.425,3.176,3.176S34.533,138.35,32.782,138.35z"/>
		<path d="M215.837,126.998c-4.508,0-8.175,3.667-8.175,8.176s3.667,8.176,8.175,8.176c4.508,0,8.176-3.667,8.176-8.176
			S220.345,126.998,215.837,126.998z M215.837,138.35c-1.751,0-3.175-1.425-3.175-3.176s1.424-3.176,3.175-3.176
			s3.176,1.425,3.176,3.176S217.588,138.35,215.837,138.35z"/>
		<path d="M52.31,36.418c0-4.508-3.667-8.175-8.176-8.175s-8.176,3.667-8.176,8.175c0,4.508,3.667,8.176,8.176,8.176
			S52.31,40.927,52.31,36.418z M40.958,36.418c0-1.751,1.425-3.175,3.176-3.175s3.176,1.424,3.176,3.175s-1.425,3.176-3.176,3.176
			S40.958,38.169,40.958,36.418z"/>
		<path d="M212.662,36.418c0-4.508-3.667-8.175-8.176-8.175s-8.176,3.667-8.176,8.175c0,4.508,3.667,8.176,8.176,8.176
			S212.662,40.927,212.662,36.418z M204.486,39.594c-1.751,0-3.176-1.425-3.176-3.176s1.425-3.175,3.176-3.175
			s3.176,1.424,3.176,3.175S206.237,39.594,204.486,39.594z"/>
		<path d="M81.453,220.62c4.508,0,8.176-3.667,8.176-8.176s-3.667-8.176-8.176-8.176s-8.176,3.667-8.176,8.176
			S76.945,220.62,81.453,220.62z M81.453,209.269c1.751,0,3.176,1.425,3.176,3.176s-1.425,3.176-3.176,3.176
			s-3.176-1.425-3.176-3.176S79.702,209.269,81.453,209.269z"/>
		<path d="M175.342,212.444c0-4.508-3.667-8.176-8.176-8.176c-4.508,0-8.175,3.667-8.175,8.176s3.667,8.176,8.175,8.176
			C171.674,220.62,175.342,216.953,175.342,212.444z M163.991,212.444c0-1.751,1.424-3.176,3.175-3.176s3.176,1.425,3.176,3.176
			s-1.425,3.176-3.176,3.176S163.991,214.195,163.991,212.444z"/>
		<path d="M53.77,185.79c4.51,0,8.17-3.67,8.18-8.18c-0.01-4.5-3.67-8.17-8.18-8.17c-4.51,0-8.17,3.67-8.17,8.17
			C45.6,182.12,49.26,185.79,53.77,185.79z M53.77,174.44c1.75,0,3.17,1.43,3.18,3.17c-0.01,1.75-1.43,3.18-3.18,3.18
			s-3.17-1.43-3.17-3.18C50.6,175.87,52.02,174.44,53.77,174.44z"/>
		<path d="M150.28,61.14c0.69-1.19,0.27-2.72-0.92-3.41h-0.01c-1.16-0.66-2.74-0.23-3.4,0.92c-0.69,1.2-0.28,2.73,0.92,3.42
			C148.178,62.792,149.651,62.255,150.28,61.14z"/>
		<path d="M77.83,106.58c0,24.303,19.769,43.56,43.56,43.56c23.816,0,43.56-19.288,43.56-43.56c0-24.071-19.452-43.58-43.56-43.58
			C97.372,63,77.83,82.423,77.83,106.58z M131.88,90.883h-19.634v-1.316c0-2.255,1.103-4.531,3.567-4.531h10.067
			c1.851,0,3.697-0.453,5.338-1.309l2.503-1.306C134.376,85.346,133.716,88.471,131.88,90.883z M112.258,95.883h18.29v7.218
			c0,5.042-4.103,9.145-9.145,9.145s-9.145-4.102-9.145-9.145V95.883z M116.472,117.246h9.837c10.262,0,18.61,8.348,18.61,18.61
			v1.248c-6.759,5.217-15.087,8.031-23.528,8.031c-8.205,0-16.573-2.667-23.529-8.031v-1.249
			C97.862,125.594,106.21,117.246,116.472,117.246z M159.95,106.58c0,9.787-3.69,19.058-10.245,26.141
			c-1.304-9.777-8.61-17.677-18.084-19.865c2.426-2.541,3.927-5.972,3.927-9.754v-8.802c3.565-4.379,4.615-10.679,1.786-16.502
			c-0.613-1.263-2.152-1.776-3.405-1.124l-5.024,2.622c-0.93,0.485-1.976,0.742-3.024,0.742h-10.067
			c-4.964,0-8.555,4.008-8.555,9.531v13.534c0,3.78,1.499,7.21,3.923,9.75c-9.484,2.181-16.801,10.086-18.105,19.871
			c-6.555-7.082-10.247-16.354-10.247-26.142c0-21.261,17.182-38.58,38.56-38.58C142.703,68,159.95,85.245,159.95,106.58z"/>
		<path d="M192.1,190.08c1.018-1.039,0.929-2.611,0-3.54c-0.94-0.94-2.59-0.94-3.53,0c-0.98,0.98-0.98,2.56,0,3.54
			C189.564,191.074,191.144,191.036,192.1,190.08z"/>
		<path d="M75.76,180.4c0-0.01,0-0.01-0.01-0.02c-0.34-1.3-1.73-2.13-3.05-1.78c-1.348,0.353-2.129,1.733-1.78,3.05
			c0.325,1.234,1.568,2.141,3.05,1.79C75.315,183.088,76.097,181.727,75.76,180.4z"/>
	</g>
</g>
</svg>
